<svg xmlns="http://www.w3.org/2000/svg" width="960" height="640" viewBox="0 0 960 640" role="img" aria-labelledby="title desc">
  <title id="title">Result figure placeholder</title>
  <desc id="desc">A placeholder panel for qualitative or quantitative paper results.</desc>
  <rect width="960" height="640" rx="24" fill="#ffffff"/>
  <rect x="28" y="28" width="904" height="584" rx="22" fill="#f8fafc" stroke="#d8e1ea" stroke-width="2"/>
  <g transform="translate(82 82)">
    <rect width="222" height="300" rx="18" fill="#eafaf1" stroke="#9dd8b7" stroke-width="2"/>
    <circle cx="72" cy="78" r="34" fill="#f2c94c"/>
    <path d="M24 270 C70 190, 118 214, 158 143 C187 92, 218 119, 222 71 V300 H24 Z" fill="#56b887" opacity="0.9"/>
    <text x="111" y="356" text-anchor="middle" font-family="Inter, Arial, sans-serif" font-size="26" font-weight="700" fill="#244c39">Input</text>
  </g>
  <g transform="translate(369 82)">
    <rect width="222" height="300" rx="18" fill="#eef4ff" stroke="#a9c4f5" stroke-width="2"/>
    <rect x="38" y="52" width="146" height="40" rx="12" fill="#ffffff"/>
    <rect x="38" y="130" width="146" height="40" rx="12" fill="#ffffff"/>
    <rect x="38" y="208" width="146" height="40" rx="12" fill="#ffffff"/>
    <path d="M111 92 V130 M111 170 V208" stroke="#4878c8" stroke-width="7" stroke-linecap="round"/>
    <text x="111" y="356" text-anchor="middle" font-family="Inter, Arial, sans-serif" font-size="26" font-weight="700" fill="#23395d">Method</text>
  </g>
  <g transform="translate(656 82)">
    <rect width="222" height="300" rx="18" fill="#fff5f1" stroke="#f2b59e" stroke-width="2"/>
    <path d="M24 260 C70 204, 110 212, 151 150 C183 102, 203 108, 222 66 V300 H24 Z" fill="#e9775f" opacity="0.9"/>
    <path d="M24 274 C65 205, 128 224, 169 151 C195 105, 212 102, 222 80" fill="none" stroke="#245f73" stroke-width="7" stroke-linecap="round"/>
    <text x="111" y="356" text-anchor="middle" font-family="Inter, Arial, sans-serif" font-size="26" font-weight="700" fill="#7f351f">Output</text>
  </g>
  <text x="480" y="548" text-anchor="middle" font-family="Inter, Arial, sans-serif" font-size="32" font-weight="700" fill="#111827">Figure Placeholder</text>
  <text x="480" y="590" text-anchor="middle" font-family="Inter, Arial, sans-serif" font-size="22" fill="#52616f">Swap this asset for a result, ablation, architecture, or benchmark chart.</text>
</svg>
